<svg width="568" height="148" viewBox="0 0 568 148" fill="none" xmlns="http://www.w3.org/2000/svg">
<path d="M18.5299 40.1399C18.1395 40.1399 18.1395 40.1399 18.5299 40.1399C18.1395 74.7703 18.1395 109.794 18.1395 144.425C11.8923 145.212 6.03561 145.999 0.178894 147.179C0.178894 98.382 0.178894 49.191 0.178894 0.393524C8.37829 0.393524 16.9681 0.393524 25.1675 0.393524C31.8052 28.7275 38.4428 56.668 45.0804 84.215H45.4708C45.4708 56.2745 45.4708 28.334 45.4708 0.393524C51.3275 0.393524 57.1842 0.393524 63.041 0.393524C63.041 46.4363 63.041 92.4791 62.6505 138.128C56.0129 138.915 48.9848 139.702 42.3472 140.883C34.5383 108.22 26.3389 74.3768 18.5299 40.1399Z" fill="#E50914"/>
<path d="M104.428 56.668C113.409 56.2745 122.779 55.881 131.76 55.4874C131.76 61.7839 131.76 68.0804 131.76 73.9833C122.779 74.3768 113.409 74.7703 104.428 75.5574C104.428 88.5438 104.428 101.53 104.428 114.517C115.751 113.73 127.465 112.549 138.788 111.762C138.788 118.058 138.788 123.961 138.788 130.258C120.827 131.832 102.476 133.406 84.5156 135.374C84.5156 90.1179 84.906 45.2557 84.906 0C102.867 0 121.218 0 139.178 0C139.178 6.29645 139.178 12.1994 139.178 18.4958C127.855 18.4958 116.142 18.8893 104.819 18.8893C104.819 31.8758 104.819 44.0751 104.428 56.668Z" fill="#E50914"/>
<path fill-rule="evenodd" clip-rule="evenodd" d="M200.044 126.598L200.088 126.716C206.726 126.323 213.754 125.929 220.782 126.323C218.439 121.6 218.439 116.878 218.439 110.975V91.692C218.439 78.3121 214.925 69.2609 205.164 65.3257V64.9321C213.754 60.6033 218.049 52.3392 218.049 39.3528V29.5146C218.049 10.2317 209.459 0.787056 188.765 0.787056H158.701C158.701 22.2343 158.603 43.6816 158.505 65.1289C158.408 86.5762 158.31 108.023 158.31 129.471L178.223 128.29V76.3444C180.566 75.9509 182.908 75.9509 185.251 75.9509C194.231 75.5574 198.136 79.8862 198.136 91.692V111.368C198.136 121.472 198.897 123.517 200.044 126.598ZM178.613 57.4551V18.4958C181.737 18.4958 184.861 18.4958 188.375 17.7088C195.403 17.7088 198.526 21.644 198.526 30.6952V43.2881C198.526 53.5198 193.841 57.0616 186.422 57.0616C183.689 57.4551 181.347 57.4551 178.613 57.4551Z" fill="#E50914"/>
<path fill-rule="evenodd" clip-rule="evenodd" d="M270.369 0.393524H238.742V125.142C244.013 125.142 249.284 125.044 254.555 124.945C259.827 124.847 265.098 124.748 270.369 124.748C290.281 124.748 300.043 114.123 300.043 94.0532V31.0887C300.043 11.4123 290.281 0.393524 270.369 0.393524ZM258.655 107.04V18.1023H269.978C276.225 18.1023 280.13 21.2505 280.13 30.3017V94.8403C280.13 103.891 276.225 107.04 269.978 107.04H258.655Z" fill="#E50914"/>
<path d="M339.478 55.881C348.068 55.881 356.658 56.2745 365.247 56.2745C365.247 62.1774 365.247 68.4739 365.247 74.3768C356.658 73.9833 348.068 73.9833 339.478 73.9833C339.478 91.2985 339.478 108.614 339.478 125.535C332.84 125.142 326.203 125.142 319.565 125.142C319.565 83.4279 319.565 42.1075 319.565 0.393524C337.135 0.393524 354.705 0.393524 372.275 0.393524C372.275 6.29644 372.275 12.5929 372.275 18.4958C361.343 18.4958 350.41 18.4958 339.478 18.4958C339.478 30.6952 339.478 43.2881 339.478 55.881Z" fill="#E50914"/>
<path d="M389.065 0.393524C395.702 0.393524 402.34 0.393524 408.977 0.393524C408.977 36.9916 408.977 73.9833 409.368 110.581C420.3 111.368 431.233 112.155 442.166 112.943C442.166 119.239 442.166 125.535 442.166 131.832C424.595 130.258 407.025 129.077 389.455 127.897C389.455 85.3956 389.065 42.8946 389.065 0.393524Z" fill="#E50914"/>
<path d="M457.783 0.393524C464.421 0.393524 471.059 0.393524 477.696 0.393524C477.696 45.2557 478.087 90.1179 478.087 134.98C471.449 134.193 464.812 133.406 458.174 133.012C457.783 88.9373 457.783 44.4687 457.783 0.393524Z" fill="#E50914"/>
<path d="M565.547 0.393528C558.519 24.0052 551.881 47.2234 544.853 70.048C552.272 95.2338 559.69 120.813 567.109 147.179C560.081 145.999 553.053 144.818 546.415 144.031C540.949 124.355 535.873 105.072 530.407 85.7891H530.016C524.55 103.891 519.084 121.994 514.008 139.309C507.761 138.522 501.514 137.735 495.266 136.948C502.685 114.517 510.103 91.2985 517.522 68.0804C510.494 44.8622 503.466 22.4311 496.438 0.393528C503.466 0.393528 510.103 0.393528 517.131 0.393528C522.207 17.7088 526.893 35.024 531.968 52.3392H532.359C537.435 35.024 542.511 17.7088 547.586 0C553.443 0.393528 559.69 0.393528 565.547 0.393528Z" fill="#E50914"/>
</svg>
